<?xml version="1.0" encoding="UTF-8"?>
<svg version="1.1" xmlns="http://www.w3.org/2000/svg" width="1200" height="1200">
<path d="M0 0 C0.95186188 -0.00705963 1.90372375 -0.01411926 2.88442993 -0.02139282 C98.02604205 -0.56617611 183.70161312 32.29292503 251.62890625 99.203125 C297.56849757 145.91296096 327.77589861 208.45535409 336.62890625 273.203125 C336.80550781 274.47502686 336.98210938 275.74692871 337.1640625 277.05737305 C338.79919871 289.659369 339.02928272 302.19540311 339.00390625 314.890625 C339.00259201 316.50343857 339.00259201 316.50343857 339.00125122 318.14883423 C338.81832577 386.46484354 315.89911707 452.44874938 273.62890625 506.203125 C272.84773437 507.19828125 272.0665625 508.1934375 271.26171875 509.21875 C262.54271232 520.07872243 252.92469767 530.01029787 243.12890625 539.890625 C241.83001465 541.20909424 241.83001465 541.20909424 240.50488281 542.55419922 C209.05789267 574.0426137 168.15766729 597.06604182 126.62890625 612.203125 C125.86723145 612.48494629 125.10555664 612.76676758 124.32080078 613.05712891 C102.18615506 621.17032597 78.96499808 626.15184944 55.62890625 629.203125 C54.78424805 629.32026855 53.93958984 629.43741211 53.06933594 629.55810547 C-9.49453239 637.95568891 -84.14830891 627.62994716 -138.87109375 594.953125 C-142.6482188 593.05687331 -144.74314467 593.2032767 -148.78393555 594.32568359 C-149.84550873 594.61739441 -150.90708191 594.90910522 -152.00082397 595.20965576 C-157.77540697 596.91185498 -163.52719056 598.67168378 -169.265625 600.4921875 C-170.59962898 600.91243566 -171.93374365 601.33233263 -173.26795959 601.75190735 C-176.10117656 602.64349333 -178.93374923 603.53708485 -181.76580811 604.43234253 C-188.54105544 606.57384853 -195.31980979 608.70421278 -202.09832001 610.83536339 C-203.63490456 611.31851462 -205.17144921 611.80179278 -206.70795441 612.2851963 C-223.7638765 617.65117713 -240.84485942 622.93455826 -257.93164062 628.20141602 C-260.12110943 628.87641399 -262.31056271 629.55146232 -264.5 630.2265625 C-265.56360748 630.55448288 -266.62721497 630.88240326 -267.72305298 631.22026062 C-275.39074042 633.58646646 -283.05211645 635.97245245 -290.7109375 638.3671875 C-291.77455505 638.69946854 -292.83817261 639.03174957 -293.934021 639.37409973 C-298.95626845 640.94320587 -303.97765834 642.51495359 -308.99755859 644.09155273 C-310.75354196 644.64058626 -312.50956184 645.18950301 -314.265625 645.73828125 C-315.06475815 645.99046417 -315.8638913 646.24264709 -316.6872406 646.50247192 C-322.14390963 648.203125 -322.14390963 648.203125 -324.37109375 648.203125 C-322.99521472 641.40308248 -321.06639963 635.00091103 -318.765625 628.4609375 C-318.40993942 627.43704926 -318.05425385 626.41316101 -317.68778992 625.35824585 C-316.52446693 622.01319905 -315.35406828 618.67067535 -314.18359375 615.328125 C-313.36413365 612.97606808 -312.54512902 610.62385243 -311.7265625 608.27148438 C-309.6636792 602.34694065 -307.59512552 596.42439644 -305.5244751 590.50256348 C-303.83943719 585.6822333 -302.15790182 580.86068373 -300.4765625 576.0390625 C-298.67958898 570.88646034 -296.88212697 565.73403188 -295.08203125 560.58251953 C-291.56472582 550.51365141 -288.06437718 540.43903974 -284.578125 530.359375 C-284.17081146 529.18177612 -283.76349792 528.00417725 -283.34384155 526.79089355 C-281.34751417 521.01801558 -279.35261427 515.24464805 -277.359375 509.47070312 C-276.63021918 507.36067334 -275.90105301 505.25064712 -275.171875 503.140625 C-274.84645218 502.19658813 -274.52102936 501.25255127 -274.18574524 500.27990723 C-272.24490827 494.66618034 -270.22659564 489.0911888 -268.112854 483.53994751 C-266.59958911 478.77259654 -267.97379104 475.98729795 -270.15625 471.6796875 C-270.90813222 470.3915844 -271.66767254 469.10793013 -272.43359375 467.828125 C-273.26176432 466.3934534 -274.08722276 464.95721326 -274.91015625 463.51953125 C-275.32555664 462.79523926 -275.74095703 462.07094727 -276.16894531 461.32470703 C-295.84859759 426.59355791 -307.2348303 386.76705408 -311.37109375 347.203125 C-311.46535645 346.33091309 -311.55961914 345.45870117 -311.65673828 344.56005859 C-316.81517177 291.08399048 -307.2197575 237.11506081 -285.37109375 188.203125 C-285.0364209 187.43355469 -284.70174805 186.66398438 -284.35693359 185.87109375 C-273.84490628 161.70050791 -258.99286495 139.56997977 -242.37109375 119.203125 C-241.7376001 118.41301025 -241.7376001 118.41301025 -241.09130859 117.60693359 C-234.19146324 109.03182806 -226.56234214 101.1872006 -218.80859375 93.390625 C-218.32571899 92.90248322 -217.84284424 92.41434143 -217.34533691 91.91140747 C-210.70356499 85.21368139 -203.79005159 79.03346816 -196.37109375 73.203125 C-195.64011475 72.62344971 -194.90913574 72.04377441 -194.15600586 71.4465332 C-157.73700014 42.77182373 -116.32205537 21.81014432 -71.37109375 10.203125 C-70.47293945 9.96899902 -69.57478516 9.73487305 -68.64941406 9.49365234 C-46.3832942 3.79511784 -23.01347507 0.11477715 0 0 Z M-117.37109375 86.203125 C-118.13744141 86.59467773 -118.90378906 86.98623047 -119.69335938 87.38964844 C-136.63145338 96.15806641 -152.16370173 107.52575981 -166.37109375 120.203125 C-167.17933594 120.90179688 -167.98757813 121.60046875 -168.8203125 122.3203125 C-180.5695199 132.61300659 -191.93978381 143.73168585 -201.37109375 156.203125 C-201.79165039 156.75258789 -202.21220703 157.30205078 -202.64550781 157.86816406 C-244.88781928 213.22958304 -263.93242918 281.23048138 -254.96435547 350.33740234 C-249.15002148 389.9302481 -234.55837597 427.52953743 -211.9375 460.54296875 C-211.49293457 461.19765137 -211.04836914 461.85233398 -210.59033203 462.52685547 C-209.34597791 464.33385236 -209.34597791 464.33385236 -207.3984375 466.14453125 C-205.09052711 470.76912736 -208.60078837 478.07344393 -210.16772461 482.78173828 C-210.88531923 484.86408412 -211.60834597 486.94456357 -212.3359375 489.0234375 C-212.72561707 490.14912643 -213.11529663 491.27481537 -213.51678467 492.43461609 C-214.77588481 496.06748517 -216.04213814 499.69781434 -217.30859375 503.328125 C-218.17263899 505.8171775 -219.03632621 508.30635431 -219.8996582 510.7956543 C-225.00128141 525.4878887 -230.13738757 540.16839452 -235.42358398 554.79541016 C-236.0221521 556.46095947 -236.0221521 556.46095947 -236.6328125 558.16015625 C-236.97272217 559.09835205 -237.31263184 560.03654785 -237.6628418 561.00317383 C-238.47324383 563.13522919 -238.47324383 563.13522919 -238.37109375 565.203125 C-229.25238541 563.72527136 -220.55725908 560.91695642 -211.76953125 558.15234375 C-210.16319351 557.65107197 -208.55671485 557.15025154 -206.95010376 556.64985657 C-202.73648169 555.33616306 -198.52478381 554.01640479 -194.31347656 552.6953125 C-190.07471453 551.36676936 -185.83416033 550.04397377 -181.59375 548.72070312 C-176.06030778 546.99327867 -170.52708154 545.26518024 -164.99581337 543.53080463 C-163.56129341 543.08180678 -162.12625273 542.63446882 -160.69066429 542.18889904 C-157.09378997 541.07032448 -153.51151915 539.92104077 -149.94219971 538.7171936 C-149.2227247 538.47937322 -148.5032497 538.24155283 -147.76197243 537.99652576 C-146.40480349 537.54711513 -145.05094879 537.08750738 -143.70145226 536.61555767 C-138.89045892 535.0398401 -135.1006601 534.95479447 -130.46264648 537.07592773 C-129.91552002 537.42598877 -129.36839355 537.7760498 -128.8046875 538.13671875 C-128.16595703 538.53318604 -127.52722656 538.92965332 -126.86914062 539.33813477 C-126.18916016 539.76795654 -125.50917969 540.19777832 -124.80859375 540.640625 C-83.71077837 565.56135332 -35.18413717 577.71986504 12.69140625 577.515625 C13.58487762 577.51380219 14.478349 577.51197937 15.39889526 577.51010132 C29.98207903 577.46022845 44.24162819 576.74877665 58.62890625 574.203125 C59.6152002 574.03151855 60.60149414 573.85991211 61.61767578 573.68310547 C107.1225036 565.52155677 149.64032158 546.21574525 185.62890625 517.203125 C186.60214844 516.43484375 187.57539062 515.6665625 188.578125 514.875 C203.62573912 502.62111706 218.01393717 488.63232731 229.40625 472.88330078 C230.71603408 471.08339382 232.0600935 469.31283407 233.41015625 467.54296875 C239.7922365 459.11306271 245.44949338 450.41740293 250.62890625 441.203125 C251.02432617 440.50799805 251.41974609 439.81287109 251.82714844 439.09667969 C284.69898769 380.83453796 291.97294432 311.5358389 274.62890625 247.203125 C270.28123268 231.96529802 264.58433148 217.4295794 257.62890625 203.203125 C257.28279297 202.48640625 256.93667969 201.7696875 256.58007812 201.03125 C245.97892511 179.30592694 231.62540017 159.46605524 215.109375 141.87109375 C213.06610009 139.67336656 211.11741823 137.43971436 209.19140625 135.140625 C200.27852904 124.92136863 189.36940249 116.40394417 178.62890625 108.203125 C177.9942041 107.71730957 177.35950195 107.23149414 176.70556641 106.73095703 C130.21151262 71.56373364 71.52297883 53.38828365 13.50390625 53.765625 C12.48597992 53.76899872 11.46805359 53.77237244 10.41928101 53.77584839 C-34.97466022 53.99258198 -77.04476641 65.48992528 -117.37109375 86.203125 Z " fill="#FFFFFF" transform="translate(613.37109375,273.796875)"/>
<path d="M0 0 C1.28777344 0.03351563 2.57554687 0.06703125 3.90234375 0.1015625 C10.3160169 0.38073728 13.78867328 1.00518031 19 5 C26.30725913 15.71973638 30.10227591 29.36650541 34.5625 41.4375 C35.66123237 44.39129806 36.76219579 47.34425304 37.86416626 50.29684448 C38.57627654 52.20513219 39.28705454 54.11391765 39.99642944 56.02322388 C42.50535935 62.75405159 45.14943622 69.41712205 47.91088867 76.0480957 C49.91739437 81.48648627 50.08399713 85.25955781 47.95703125 90.63671875 C44.40029806 97.78007364 39.45931743 103.26324185 34 109 C31.60879617 111.71524547 29.22600769 114.43755732 26.84765625 117.1640625 C25 119 25 119 23 119 C21.33170409 122.00293265 20.32140133 124.56684941 20 128 C26.70127533 146.72486319 41.39081027 164.20390824 54.7578125 178.5703125 C56.61760375 180.58562636 58.38433381 182.63297355 60.125 184.75 C63.40794091 188.5936636 67.10725244 191.78636105 71 195 C71.52239258 195.43473633 72.04478516 195.86947266 72.58300781 196.31738281 C103.89353337 222.65683394 103.89353337 222.65683394 140.96875 234.53515625 C145.24375916 233.40885576 147.99852603 230.08075819 151 227 C151.74507812 226.278125 152.49015625 225.55625 153.2578125 224.8125 C159.13910443 219.07076415 164.51053375 212.98453987 169.7734375 206.6796875 C170.26408691 206.09413086 170.75473633 205.50857422 171.26025391 204.90527344 C172.23768906 203.73722081 173.211457 202.56608756 174.18115234 201.39160156 C177.58476658 197.31992004 179.49855842 195.16682684 184.9375 194.5625 C195.59439068 194.8231537 206.27192959 201.98996985 215.5625 206.6875 C216.79845054 207.30959238 218.03445385 207.93157993 219.27050781 208.5534668 C229.24452318 213.58113676 239.17376699 218.68864262 249 224 C249.76393066 224.4115332 250.52786133 224.82306641 251.31494141 225.24707031 C253.56971391 226.46732238 255.8173587 227.69963146 258.0625 228.9375 C258.73635742 229.30335205 259.41021484 229.6692041 260.10449219 230.04614258 C263.25940184 231.80871952 264.95831974 232.93747961 267 236 C268.89880067 252.8242571 264.32811786 271.42224745 253.81640625 284.7734375 C236.26270602 303.50891394 209.89511958 312.42850867 184.75 313.375 C138.74572499 312.32694098 80.62552022 281.83554281 46 253 C45.45682129 252.55301758 44.91364258 252.10603516 44.35400391 251.64550781 C29.96457479 239.79438594 16.1199602 227.18748283 4 213 C3.10761797 211.98232945 2.21431303 210.96546778 1.3203125 209.94921875 C-10.68272941 196.24112017 -21.04840062 181.6173325 -31.1875 166.5 C-31.65508728 165.80611176 -32.12267456 165.11222351 -32.60443115 164.39730835 C-49.96293615 138.58802237 -65.485472 110.69051457 -65.3125 78.75 C-65.30686035 77.65316895 -65.3012207 76.55633789 -65.29541016 75.42626953 C-64.91962418 50.21140243 -55.24304029 30.91874724 -38 13 C-37.30777344 12.22140625 -36.61554688 11.4428125 -35.90234375 10.640625 C-25.53566966 -0.68395532 -14.36083575 -0.69602163 0 0 Z " fill="#FFFFFF" transform="translate(529,435)"/>
</svg>
